<svg id="visual" viewBox="0 0 1366 768" width="1366" height="768" xmlns="http://www.w3.org/2000/svg" xmlns:xlink="http://www.w3.org/1999/xlink" version="1.1"><rect x="0" y="0" width="1366" height="768" fill="#000a1f"></rect><path d="M0 354L12 354.7C24 355.3 48 356.7 72 379.3C96 402 120 446 144 468.8C168 491.7 192 493.3 216 514.7C240 536 264 577 287.8 561.7C311.7 546.3 335.3 474.7 359.2 468.8C383 463 407 523 431 547C455 571 479 559 503 564.2C527 569.3 551 591.7 575 602.2C599 612.7 623 611.3 647 605.8C671 600.3 695 590.7 719 578.3C743 566 767 551 791 549.7C815 548.3 839 560.7 863 576.7C887 592.7 911 612.3 935 587.5C959 562.7 983 493.3 1006.8 455.7C1030.7 418 1054.3 412 1078.2 406.3C1102 400.7 1126 395.3 1150 424.8C1174 454.3 1198 518.7 1222 542.2C1246 565.7 1270 548.3 1294 554.7C1318 561 1342 591 1354 606L1366 621L1366 769L1354 769C1342 769 1318 769 1294 769C1270 769 1246 769 1222 769C1198 769 1174 769 1150 769C1126 769 1102 769 1078.2 769C1054.3 769 1030.7 769 1006.8 769C983 769 959 769 935 769C911 769 887 769 863 769C839 769 815 769 791 769C767 769 743 769 719 769C695 769 671 769 647 769C623 769 599 769 575 769C551 769 527 769 503 769C479 769 455 769 431 769C407 769 383 769 359.2 769C335.3 769 311.7 769 287.8 769C264 769 240 769 216 769C192 769 168 769 144 769C120 769 96 769 72 769C48 769 24 769 12 769L0 769Z" fill="#002b7b" stroke-linecap="round" stroke-linejoin="miter"></path></svg>