<svg id="visual" viewBox="0 0 1366 768" width="1366" height="768" xmlns="http://www.w3.org/2000/svg" xmlns:xlink="http://www.w3.org/1999/xlink" version="1.1"><rect x="0" y="0" width="1366" height="768" fill="#000a1f"></rect><path d="M632 768L633.2 761.3C634.3 754.7 636.7 741.3 677.2 727.8C717.7 714.3 796.3 700.7 837 687.2C877.7 673.7 880.3 660.3 918.2 646.8C956 633.3 1029 619.7 1001.8 606.2C974.7 592.7 847.3 579.3 837 565.8C826.7 552.3 933.3 538.7 975.8 525.2C1018.3 511.7 996.7 498.3 1005.8 485C1015 471.7 1055 458.3 1073.8 444.8C1092.7 431.3 1090.3 417.7 1080.7 404.2C1071 390.7 1054 377.3 1032 363.8C1010 350.3 983 336.7 980.5 323.2C978 309.7 1000 296.3 1028.3 283C1056.7 269.7 1091.3 256.3 1047.2 242.8C1003 229.3 880 215.7 813.2 202.2C746.3 188.7 735.7 175.3 725.7 161.8C715.7 148.3 706.3 134.7 758.8 121.2C811.3 107.7 925.7 94.3 967.3 80.8C1009 67.3 978 53.7 989.3 40.2C1000.7 26.7 1054.3 13.3 1081.2 6.7L1108 0L1366 0L1366 6.7C1366 13.3 1366 26.7 1366 40.2C1366 53.7 1366 67.3 1366 80.8C1366 94.3 1366 107.7 1366 121.2C1366 134.7 1366 148.3 1366 161.8C1366 175.3 1366 188.7 1366 202.2C1366 215.7 1366 229.3 1366 242.8C1366 256.3 1366 269.7 1366 283C1366 296.3 1366 309.7 1366 323.2C1366 336.7 1366 350.3 1366 363.8C1366 377.3 1366 390.7 1366 404.2C1366 417.7 1366 431.3 1366 444.8C1366 458.3 1366 471.7 1366 485C1366 498.3 1366 511.7 1366 525.2C1366 538.7 1366 552.3 1366 565.8C1366 579.3 1366 592.7 1366 606.2C1366 619.7 1366 633.3 1366 646.8C1366 660.3 1366 673.7 1366 687.2C1366 700.7 1366 714.3 1366 727.8C1366 741.3 1366 754.7 1366 761.3L1366 768Z" fill="#002b7b" stroke-linecap="round" stroke-linejoin="miter"></path></svg>